<svg width="18" height="12" viewBox="0 0 18 12" fill="none" xmlns="http://www.w3.org/2000/svg">
<path d="M10.1368 0.199997C11.4583 0.199997 12.5421 1.19401 12.7077 2.4724H14.4483C16.2963 2.4724 17.8001 3.97619 17.8001 5.8251V8.87669C17.8001 9.09856 17.6883 9.30546 17.5043 9.42784C15.6888 10.6296 13.5335 11.43 11.2726 11.7425C11.2417 11.7469 11.2118 11.7487 11.1819 11.7487C10.8834 11.7487 10.6166 11.5471 10.5418 11.2512C10.3639 10.5504 9.72739 10.06 8.99575 10.06C8.25442 10.06 7.62491 10.5398 7.42945 11.2547C7.34141 11.5743 7.03414 11.7786 6.70133 11.7346C4.45534 11.4212 2.30884 10.6244 0.496902 9.42784C0.31113 9.30634 0.200195 9.09856 0.200195 8.87669V5.8251C0.200195 3.97619 1.7075 2.4724 3.56082 2.4724H5.29264C5.45816 1.19401 6.54109 0.199997 7.86351 0.199997H10.1368ZM10.1368 1.52065H7.86351C7.27098 1.52065 6.77617 1.92565 6.62826 2.4724H11.3712C11.2233 1.92565 10.7284 1.52065 10.1368 1.52065Z" fill="#2D99FF"/>
</svg>
